<?xml version="1.0" encoding="UTF-8"?>
<svg id="_レイヤー_1" data-name="レイヤー 1" xmlns="http://www.w3.org/2000/svg" viewBox="0 0 320 320">
  <defs>
    <style>
      .cls-1 {
        stroke: #29abe2;
      }

      .cls-1, .cls-2 {
        fill: none;
        stroke-linecap: round;
        stroke-linejoin: round;
        stroke-width: 7px;
      }

      .cls-2 {
        stroke: #ff7bac;
      }
    </style>
  </defs>
  <path class="cls-1" d="M237.35,208.81c23.53,0,42.6-19.07,42.6-42.58s-19.07-42.6-42.6-42.6c-2.26,0-4.47.18-6.64.52-3.8-29.85-29.28-52.92-60.15-52.92s-53.95,20.95-59.48,48.74c-6.91-3.9-14.89-6.13-23.38-6.13-26.31,0-47.64,21.32-47.64,47.63s21.34,47.63,47.64,47.63"/>
  <rect class="cls-1" x="122.66" y="156.11" width="81.91" height="81.91"/>
  <polyline class="cls-2" points="165.44 212.99 147.69 212.99 147.69 181.15 179.53 181.15 179.53 194.24"/>
  <g>
    <line class="cls-1" x1="138.46" y1="156.11" x2="138.46" y2="141.48"/>
    <line class="cls-1" x1="188.76" y1="156.11" x2="188.76" y2="141.48"/>
    <line class="cls-1" x1="163.61" y1="156.11" x2="163.61" y2="141.48"/>
  </g>
  <g>
    <line class="cls-1" x1="138.46" y1="252.66" x2="138.46" y2="238.02"/>
    <line class="cls-1" x1="188.76" y1="252.66" x2="188.76" y2="238.02"/>
    <line class="cls-1" x1="163.61" y1="252.66" x2="163.61" y2="238.02"/>
  </g>
  <g>
    <line class="cls-1" x1="204.57" y1="171.92" x2="219.2" y2="171.92"/>
    <line class="cls-1" x1="204.57" y1="222.22" x2="219.2" y2="222.22"/>
    <line class="cls-1" x1="204.57" y1="197.07" x2="219.2" y2="197.07"/>
  </g>
  <g>
    <line class="cls-1" x1="108.02" y1="171.92" x2="122.66" y2="171.92"/>
    <line class="cls-1" x1="108.02" y1="222.22" x2="122.66" y2="222.22"/>
    <line class="cls-1" x1="108.02" y1="197.07" x2="122.66" y2="197.07"/>
  </g>
</svg>