<?xml version="1.0" encoding="UTF-8"?>
<svg id="_レイヤー_1" data-name="レイヤー 1" xmlns="http://www.w3.org/2000/svg" viewBox="0 0 320 320">
  <defs>
    <style>
      .cls-1 {
        stroke: #29abe2;
      }

      .cls-1, .cls-2 {
        fill: none;
        stroke-linecap: round;
        stroke-linejoin: round;
        stroke-width: 7px;
      }

      .cls-2 {
        stroke: #ff7bac;
      }
    </style>
  </defs>
  <path class="cls-1" d="M192.47,99.43c-7.67-33.04-21.18-54.96-36.56-54.96s-28.89,21.92-36.58,54.96c-2.72,11.72-4.71,24.84-5.79,38.89-.61,7.89-.93,16.07-.93,24.45,0,2.91.04,5.79.12,8.64"/>
  <path class="cls-1" d="M113.55,187.24c1.07,14.04,3.06,27.16,5.79,38.88,7.67,33.04,21.19,54.96,36.57,54.96,13.2,0,25.03-16.17,32.97-41.65"/>
  <path class="cls-1" d="M192.47,226.12c2.73-11.72,4.72-24.85,5.8-38.89.61-7.89.93-16.07.93-24.46s-.32-16.57-.93-24.45c-.62-8.15-1.56-15.98-2.76-23.42"/>
  <ellipse class="cls-1" cx="155.91" cy="162.77" rx="118.3" ry="43.29" transform="translate(-60.5 99.76) rotate(-30)"/>
  <path class="cls-1" d="M240.31,174.23c17.02,18.98,24.46,36.59,18.05,47.7-7.7,13.32-33.44,14.06-65.89,4.19-11.51-3.5-23.87-8.34-36.56-14.43-7.14-3.41-14.39-7.23-21.65-11.42-7.26-4.19-14.18-8.56-20.71-13.03-11.62-7.95-21.99-16.24-30.78-24.47"/>
  <path class="cls-1" d="M73.47,153.47c-18.41-19.79-26.68-38.32-20.02-49.85,7.69-13.32,33.43-14.06,65.88-4.19,11.52,3.5,23.88,8.34,36.58,14.43,7.14,3.41,14.38,7.23,21.64,11.42,7.26,4.19,14.19,8.56,20.72,13.03,11.62,7.96,21.99,16.24,30.77,24.47"/>
  <circle class="cls-2" cx="155.91" cy="162.77" r="17.29"/>
</svg>