<?xml version="1.0" encoding="UTF-8"?>
<svg id="_レイヤー_1" data-name="レイヤー 1" xmlns="http://www.w3.org/2000/svg" viewBox="0 0 320 320">
  <defs>
    <style>
      .cls-1 {
        stroke: #29abe2;
      }

      .cls-1, .cls-2 {
        fill: none;
        stroke-linecap: round;
        stroke-linejoin: round;
        stroke-width: 7px;
      }

      .cls-2 {
        stroke: #ff7bac;
      }
    </style>
  </defs>
  <line class="cls-2" x1="236.7" y1="209.55" x2="259.71" y2="222.84"/>
  <line class="cls-2" x1="202.46" y1="243.8" x2="211.97" y2="260.27"/>
  <line class="cls-2" x1="154.04" y1="257.28" x2="154.04" y2="281.85"/>
  <line class="cls-2" x1="107.26" y1="244.74" x2="97.75" y2="261.22"/>
  <line class="cls-2" x1="71.37" y1="209.55" x2="48.36" y2="222.84"/>
  <line class="cls-2" x1="58.84" y1="162.77" x2="39.82" y2="162.77"/>
  <line class="cls-2" x1="71.37" y1="114.1" x2="48.36" y2="100.81"/>
  <line class="cls-2" x1="105.62" y1="79.86" x2="96.11" y2="63.38"/>
  <path class="cls-1" d="M181.77,226.31c1.93.54,3.96.82,6.06.82,1.16,0,2.29-.08,3.41-.25,10.85-1.65,19.17-11.02,19.17-22.33,0-2.68-.47-5.25-1.33-7.63"/>
  <path class="cls-1" d="M154.04,235.17c3.97,4.39,9.7,7.14,16.08,7.14,3.62,0,7.03-.89,10.03-2.45"/>
  <line class="cls-1" x1="154.04" y1="165.14" x2="154.04" y2="235.17"/>
  <g>
    <path class="cls-1" d="M129.32,95.02c-2.65-1.24-5.61-1.94-8.74-1.94-11.39,0-20.63,9.23-20.63,20.63,0,3.88,1.07,7.5,2.93,10.6"/>
    <path class="cls-1" d="M92.62,148.1c-1.53-3.03-2.39-6.46-2.39-10.09,0-7.97,4.16-14.98,10.43-18.95"/>
    <path class="cls-1" d="M98.75,144.16c-9.83,4.69-16.62,14.71-16.62,26.33,0,16.1,13.05,29.15,29.15,29.15"/>
    <path class="cls-1" d="M98.04,208.7c1.74,9.39,9.3,16.75,18.79,18.19,1.11.17,2.25.25,3.41.25,2.1,0,4.13-.29,6.06-.82"/>
    <path class="cls-1" d="M117.21,226.94c2.7,8.9,10.96,15.37,20.74,15.37,6.38,0,12.11-2.75,16.08-7.14"/>
  </g>
  <path class="cls-1" d="M180.15,206.59c-6.46,1.74-10.28,8.38-8.54,14.84"/>
  <path class="cls-1" d="M124.61,116.13c0-6.09,4.93-11.01,11.01-11.01"/>
  <path class="cls-1" d="M112.52,161.95c6.03.84,10.23,6.4,9.39,12.43"/>
  <path class="cls-1" d="M129.32,202.94c6.03.84,10.23,6.4,9.39,12.43"/>
  <rect class="cls-1" x="147.27" y="38.15" width="132.91" height="132.91" rx="66.46" ry="66.46"/>
  <g>
    <path class="cls-2" d="M178.84,115.99c-5.2,10.81-6.08,20.13-1.36,24.86,6.33,6.32,20.91,2.61,36.25-8.1,5.09-3.55,10.27-7.88,15.26-12.88,4.99-4.99,9.32-10.17,12.88-15.26"/>
    <path class="cls-2" d="M249.11,92.17c4.76-10.36,5.44-19.24.87-23.81-6.33-6.32-20.9-2.61-36.24,8.1-5.09,3.55-10.28,7.88-15.27,12.88-4.98,4.99-9.31,10.17-12.88,15.26"/>
    <ellipse class="cls-2" cx="213.73" cy="104.61" rx="21.59" ry="51.26" transform="translate(-11.37 181.77) rotate(-45)"/>
    <circle class="cls-2" cx="213.73" cy="104.61" r="9.21"/>
  </g>
</svg>