<?xml version="1.0" encoding="UTF-8"?>
<svg id="_レイヤー_1" data-name="レイヤー 1" xmlns="http://www.w3.org/2000/svg" viewBox="0 0 320 320">
  <defs>
    <style>
      .cls-1 {
        stroke: #29abe2;
      }

      .cls-1, .cls-2 {
        fill: none;
        stroke-linecap: round;
        stroke-linejoin: round;
        stroke-width: 7px;
      }

      .cls-2 {
        stroke: #ff7bac;
      }
    </style>
  </defs>
  <g>
    <path class="cls-1" d="M200.04,150.24c9.67,3.7,15.64,8.74,15.64,14.32,0,11.33-24.7,20.52-55.18,20.52s-55.18-9.19-55.18-20.52c0-5.57,5.96-10.62,15.63-14.31"/>
    <line class="cls-1" x1="193.6" y1="276.28" x2="193.6" y2="206"/>
    <line class="cls-1" x1="127.4" y1="276.28" x2="127.4" y2="206"/>
    <line class="cls-1" x1="149.46" y1="258.86" x2="149.46" y2="184.67"/>
    <line class="cls-1" x1="105.32" y1="164.56" x2="105.32" y2="276.28"/>
    <line class="cls-1" x1="171.53" y1="258.86" x2="171.53" y2="184.67"/>
    <line class="cls-1" x1="215.67" y1="164.56" x2="215.67" y2="276.28"/>
    <line class="cls-1" x1="200.04" y1="115.71" x2="200.04" y2="178.34"/>
    <line class="cls-1" x1="120.95" y1="178.34" x2="120.95" y2="115.71"/>
    <path class="cls-1" d="M190.24,106.32c6.11,2.51,9.81,5.79,9.81,9.39,0,7.87-17.7,14.24-39.54,14.24s-39.54-6.38-39.54-14.24c0-3,2.57-5.78,6.97-8.08"/>
    <path class="cls-1" d="M169.92,101.87c2.45.22,4.81.51,7.05.88"/>
    <path class="cls-1" d="M146.58,102.37c2.14-.29,4.36-.51,6.65-.67"/>
  </g>
  <g>
    <path class="cls-2" d="M203.65,71.62h-16.46c-2.48,0-4.5,2.01-4.5,4.5v39.32"/>
    <path class="cls-2" d="M116.35,73.91h16.46c2.48,0,4.5,2.01,4.5,4.5v37.56"/>
    <line class="cls-2" x1="161.26" y1="118.14" x2="161.26" y2="65.17"/>
    <circle class="cls-2" cx="214.42" cy="71.62" r="10.52"/>
    <circle class="cls-2" cx="105.58" cy="73.91" r="10.52"/>
    <circle class="cls-2" cx="161.26" cy="54.23" r="10.52" transform="translate(71.43 198.72) rotate(-76.72)"/>
  </g>
</svg>