<?xml version="1.0" encoding="UTF-8"?>
<svg id="_レイヤー_1" data-name="レイヤー 1" xmlns="http://www.w3.org/2000/svg" viewBox="0 0 320 320">
  <defs>
    <style>
      .cls-1 {
        stroke: #29abe2;
      }

      .cls-1, .cls-2 {
        fill: none;
        stroke-linecap: round;
        stroke-linejoin: round;
        stroke-width: 7px;
      }

      .cls-2 {
        stroke: #ff7bac;
      }
    </style>
  </defs>
  <path class="cls-1" d="M129.42,272.61c0,5.97,4.83,10.82,10.81,10.82h67.94c.3,0,.59-.01.88-.04,6.69-.53,10.95-7.47,8.9-13.87l-3-9.32c-2.81-8.76-4.28-17.88-4.37-27.05"/>
  <path class="cls-1" d="M134.31,54.17c-38.57,5.79-68.04,32.78-70.03,73.05-.04.72.3,1.86.82,3.18,3.03,7.57,2.58,16.08-1.13,23.33l-11.37,22.21c-4.38,8.48,1.77,18.58,11.32,18.58l6.32.8c6.26.77,5.22,4.71,5.22,10.25v20.36c0,15.2,13.36,26.94,28.44,24.99l14.92-1.93c5.6-.73,10.59,3.64,10.59,9.3v14.33"/>
  <g>
    <path class="cls-2" d="M157.67,133.11c-.02-1.09-.03-2.18-.03-3.28,0-45.82,16.56-82.96,36.98-82.96s36.98,37.14,36.98,82.96-16.56,82.96-36.98,82.96c-9.63,0-18.41-8.26-24.99-21.8"/>
    <path class="cls-2" d="M215.53,160.44c-.8.48-1.6.95-2.41,1.41-39.68,22.91-80.12,27.14-90.34,9.45-10.21-17.69,13.67-50.6,53.35-73.51,39.68-22.91,80.12-27.14,90.34-9.45,4.01,6.94,2.76,16.23-2.63,26.34"/>
    <path class="cls-2" d="M214.97,98.88c38.57,22.85,61.55,55.01,51.5,72.42-10.21,17.69-50.66,13.46-90.34-9.45-39.68-22.91-63.57-55.82-53.35-73.51,4.31-7.46,13.99-11.02,26.73-10.93"/>
    <circle class="cls-2" cx="194.63" cy="129.82" r="15.11" transform="translate(23.56 289.42) rotate(-76.72)"/>
  </g>
</svg>