<?xml version="1.0" encoding="UTF-8"?>
<svg id="_レイヤー_1" data-name="レイヤー 1" xmlns="http://www.w3.org/2000/svg" viewBox="0 0 320 320">
  <defs>
    <style>
      .cls-1 {
        stroke: #29abe2;
      }

      .cls-1, .cls-2 {
        fill: none;
        stroke-linecap: round;
        stroke-linejoin: round;
        stroke-width: 7px;
      }

      .cls-2 {
        stroke: #ff7bac;
      }
    </style>
  </defs>
  <g>
    <g>
      <path class="cls-1" d="M152.69,71.43c3.29-5.53,9.34-9.24,16.24-9.24,6.15,0,11.61,2.94,15.06,7.49"/>
      <path class="cls-1" d="M182.2,82.78c3.17-1.48,6.7-2.31,10.43-2.31,13.6,0,24.62,11.02,24.62,24.62,0,4.63-1.28,8.96-3.5,12.65"/>
      <path class="cls-1" d="M216.41,111.47c7.48,4.75,12.45,13.11,12.45,22.62,0,.57-.02,1.14-.05,1.71"/>
      <path class="cls-1" d="M218.68,141.44c11.73,5.59,19.83,17.56,19.83,31.42,0,19.22-15.58,34.79-34.79,34.79"/>
      <path class="cls-1" d="M185.79,239.49c2.3.64,4.73.98,7.24.98,1.38,0,2.74-.1,4.07-.3,12.96-1.97,22.89-13.15,22.89-26.65,0-3.2-.56-6.27-1.58-9.11"/>
      <path class="cls-1" d="M152.69,250.06c4.74,5.24,11.58,8.53,19.2,8.53,7.17,0,13.65-2.91,18.33-7.61"/>
    </g>
    <g>
      <path class="cls-1" d="M117.57,80.94c.08-10.37,8.5-18.75,18.88-18.75,6.91,0,12.95,3.71,16.24,9.24v15.95"/>
      <path class="cls-1" d="M123.18,82.78c-3.17-1.48-6.7-2.31-10.43-2.31-13.6,0-24.62,11.02-24.62,24.62,0,4.63,1.28,8.96,3.5,12.65"/>
      <path class="cls-1" d="M79.38,146.14c-1.83-3.62-2.85-7.71-2.85-12.04,0-4.65,1.18-9.02,3.27-12.83"/>
      <path class="cls-1" d="M86.7,141.44c-11.73,5.59-19.83,17.56-19.83,31.42,0,19.22,15.58,34.79,34.79,34.79"/>
      <path class="cls-1" d="M85.85,218.46c2.08,11.21,11.1,19.99,22.43,21.71,1.33.2,2.69.3,4.07.3,2.51,0,4.94-.34,7.24-.98"/>
      <path class="cls-1" d="M108.73,240.24c3.23,10.62,13.09,18.35,24.76,18.35,7.62,0,14.46-3.29,19.2-8.53v-9.82"/>
    </g>
  </g>
  <g>
    <path class="cls-2" d="M125.89,165.16c-.01-.79-.02-1.58-.02-2.38,0-33.23,12.01-60.18,26.83-60.18s26.83,26.94,26.83,60.18-12.01,60.18-26.83,60.18c-6.99,0-13.35-5.99-18.13-15.81"/>
    <path class="cls-2" d="M167.85,184.99c-.58.34-1.16.69-1.75,1.03-28.78,16.62-58.12,19.69-65.53,6.86-7.41-12.83,9.92-36.7,38.7-53.32,28.78-16.62,58.12-19.69,65.53-6.86,2.91,5.04,2,11.77-1.91,19.1"/>
    <path class="cls-2" d="M167.45,140.33c27.97,16.58,44.65,39.9,37.36,52.53-7.41,12.83-36.75,9.76-65.53-6.86-28.78-16.62-46.11-40.49-38.7-53.32,3.12-5.41,10.15-8,19.39-7.93"/>
  </g>
  <line class="cls-1" x1="153.3" y1="48.5" x2="153.3" y2="40.95"/>
  <line class="cls-1" x1="233.93" y1="82.4" x2="239.27" y2="77.07"/>
  <line class="cls-1" x1="266.97" y1="163.39" x2="274.52" y2="163.39"/>
  <line class="cls-1" x1="233.07" y1="244.02" x2="238.41" y2="249.35"/>
  <line class="cls-1" x1="152.09" y1="277.06" x2="152.09" y2="284.61"/>
  <line class="cls-1" x1="71.45" y1="243.16" x2="66.12" y2="248.49"/>
  <line class="cls-1" x1="38.41" y1="162.17" x2="30.87" y2="162.17"/>
  <line class="cls-1" x1="72.31" y1="81.54" x2="66.98" y2="76.21"/>
</svg>