<?xml version="1.0" encoding="UTF-8"?>
<svg id="_レイヤー_1" data-name="レイヤー 1" xmlns="http://www.w3.org/2000/svg" viewBox="0 0 320 320">
  <defs>
    <style>
      .cls-1 {
        stroke: #29abe2;
      }

      .cls-1, .cls-2 {
        fill: none;
        stroke-linecap: round;
        stroke-linejoin: round;
        stroke-width: 7px;
      }

      .cls-2 {
        stroke: #ff7bac;
      }
    </style>
  </defs>
  <g>
    <g>
      <g>
        <line class="cls-1" x1="199.06" y1="72" x2="190.34" y2="90.71"/>
        <path class="cls-1" d="M216.48,65.66c-3.06,6.56-10.86,9.4-17.42,6.34-6.56-3.06-9.4-10.86-6.34-17.42,3.06-6.56,10.86-9.4,17.42-6.34,6.56,3.06,9.4,10.86,6.34,17.42Z"/>
      </g>
      <g>
        <line class="cls-1" x1="246.86" y1="124.16" x2="228.76" y2="130.75"/>
        <circle class="cls-1" cx="262.51" cy="117.05" r="16.67" transform="translate(89.61 346.65) rotate(-77.05)"/>
      </g>
    </g>
    <g>
      <g>
        <line class="cls-1" x1="248" y1="199.06" x2="228.73" y2="188.69"/>
        <path class="cls-1" d="M254.34,216.48c-6.56-3.06-9.4-10.86-6.34-17.42,3.06-6.56,10.86-9.4,17.42-6.34,6.56,3.06,9.4,10.86,6.34,17.42-3.06,6.56-10.86,9.4-17.42,6.34Z"/>
      </g>
      <g>
        <line class="cls-1" x1="195.84" y1="246.86" x2="188.47" y2="226.6"/>
        <circle class="cls-1" cx="202.95" cy="262.51" r="16.67" transform="translate(-120.73 335.5) rotate(-65)"/>
      </g>
    </g>
    <g>
      <g>
        <line class="cls-1" x1="120.94" y1="248" x2="131.54" y2="227.65"/>
        <circle class="cls-1" cx="115.4" cy="259.89" r="13.11" transform="translate(-9.65 4.5) rotate(-2.15)"/>
      </g>
      <g>
        <line class="cls-1" x1="73.14" y1="195.84" x2="90.58" y2="189.49"/>
        <path class="cls-1" d="M51.79,187.29c8.65-3.15,18.21,1.31,21.36,9.96,3.15,8.65-1.31,18.21-9.96,21.36-8.65,3.15-18.21-1.31-21.36-9.96-3.15-8.65,1.31-18.21,9.96-21.36Z"/>
      </g>
    </g>
    <g>
      <g>
        <line class="cls-1" x1="72" y1="120.94" x2="92.16" y2="131.73"/>
        <path class="cls-1" d="M65.66,103.52c6.56,3.06,9.4,10.86,6.34,17.42-3.06,6.56-10.86,9.4-17.42,6.34-6.56-3.06-9.4-10.86-6.34-17.42,3.06-6.56,10.86-9.4,17.42-6.34Z"/>
      </g>
      <g>
        <line class="cls-1" x1="124.16" y1="73.14" x2="131.2" y2="92.47"/>
        <path class="cls-1" d="M132.71,51.79c3.15,8.65-1.31,18.21-9.96,21.36-8.65,3.15-18.21-1.31-21.36-9.96-3.15-8.65,1.31-18.21,9.96-21.36,8.65-3.15,18.21,1.31,21.36,9.96Z"/>
      </g>
    </g>
  </g>
  <g>
    <path class="cls-1" d="M131.39,162.54c-.01-.84-.02-1.69-.02-2.54,0-35.48,12.82-64.23,28.64-64.23s28.64,28.76,28.64,64.23-12.82,64.23-28.64,64.23c-7.46,0-14.25-6.4-19.35-16.88"/>
    <path class="cls-1" d="M176.18,183.7c-.62.37-1.24.73-1.86,1.09-30.72,17.74-62.04,21.01-69.95,7.32-7.91-13.7,10.59-39.18,41.31-56.92,30.72-17.74,62.04-21.01,69.95-7.32,3.1,5.38,2.14,12.57-2.03,20.39"/>
    <path class="cls-1" d="M175.75,136.04c29.86,17.69,47.66,42.59,39.87,56.08-7.91,13.7-39.22,10.42-69.95-7.32-30.72-17.74-49.22-43.22-41.31-56.92,3.34-5.78,10.84-8.53,20.7-8.46"/>
    <circle class="cls-2" cx="160" cy="160" r="11.53" transform="translate(-32.48 278.96) rotate(-76.72)"/>
  </g>
</svg>